<svg xmlns="http://www.w3.org/2000/svg" width="61" height="61" viewBox="2 1.998 60 60" fill="#fa4f01"><path fill="#FA4F01" paint-order="stroke fill markers" fill-rule="evenodd" d="M56.14 7.155h-5.585V5.514a3.52 3.52 0 0 0-3.516-3.516 3.52 3.52 0 0 0-3.516 3.516v1.641H23.836V5.514a3.52 3.52 0 0 0-3.516-3.516 3.52 3.52 0 0 0-3.515 3.516v1.684a1.137 1.137 0 0 0-.313-.043h-4.67a5.865 5.865 0 0 0-5.859 5.859v19.962a1.172 1.172 0 0 0 2.344 0V19.224h42.248a1.172 1.172 0 1 0 0-2.343H8.307v-3.867a3.52 3.52 0 0 1 3.516-3.515h4.669c.109 0 .213-.017.313-.044v1.509a3.52 3.52 0 0 0 3.515 3.515 3.52 3.52 0 0 0 3.516-3.515V9.499h19.687v1.465a3.52 3.52 0 0 0 3.516 3.515 3.52 3.52 0 0 0 3.516-3.515V9.499h5.585a3.52 3.52 0 0 1 3.516 3.515v44.53c0 1.164-.946 2.11-2.11 2.11a2.113 2.113 0 0 1-2.11-2.11v-3.031c0-.647-.525-1.173-1.172-1.173H40.633a1.173 1.173 0 0 0 0 2.345h12.46v1.86c0 .763.192 1.481.532 2.11H6.453a2.112 2.112 0 0 1-2.11-2.11v-1.86h26.23a1.172 1.172 0 1 0 0-2.345H18.864a9.586 9.586 0 0 0 3.348-7.28c0-5.298-4.31-9.608-9.61-9.608-5.298 0-9.609 4.31-9.609 9.609 0 2.908 1.3 5.517 3.349 7.28h-3.17c-.647 0-1.172.525-1.172 1.172v3.032a4.457 4.457 0 0 0 4.453 4.453h51.093A4.459 4.459 0 0 0 62 57.544v-44.53a5.865 5.865 0 0 0-5.86-5.859zm-34.648 3.809c0 .645-.526 1.172-1.172 1.172a1.174 1.174 0 0 1-1.172-1.172v-5.45c0-.646.526-1.172 1.172-1.172.646 0 1.172.526 1.172 1.172v5.45zm26.719 0c0 .645-.526 1.172-1.172 1.172a1.174 1.174 0 0 1-1.172-1.172v-5.45c0-.646.526-1.172 1.172-1.172.646 0 1.172.526 1.172 1.172v5.45zM5.337 46.06c0-4.007 3.26-7.265 7.266-7.265s7.265 3.258 7.265 7.265c0 4.006-3.259 7.265-7.265 7.265s-7.266-3.259-7.266-7.265zM56.88 17.225a1.18 1.18 0 0 0-.829-.344c-.308 0-.61.126-.828.344a1.178 1.178 0 0 0-.344.828c0 .308.126.61.344.828.218.219.52.343.828.343.309 0 .61-.124.829-.343a1.18 1.18 0 0 0 .343-.828c0-.309-.125-.61-.343-.828zm-19.882 36.46a1.177 1.177 0 0 0-.829-.344c-.308 0-.61.125-.828.344a1.179 1.179 0 0 0-.344.827c0 .31.126.61.344.83a1.178 1.178 0 0 0 1.657 0c.218-.22.343-.522.343-.83 0-.308-.125-.609-.343-.827zm-8.485-16.062a4.458 4.458 0 0 0-4.453 4.454 4.458 4.458 0 0 0 4.453 4.452 4.458 4.458 0 0 0 4.453-4.452 4.458 4.458 0 0 0-4.453-4.454zm0 6.563a2.112 2.112 0 0 1-2.11-2.11c0-1.163.947-2.109 2.11-2.109 1.163 0 2.11.946 2.11 2.11 0 1.163-.947 2.11-2.11 2.11zm10.937-6.563a4.458 4.458 0 0 0-4.453 4.454 4.458 4.458 0 0 0 4.453 4.452 4.458 4.458 0 0 0 4.454-4.452 4.458 4.458 0 0 0-4.454-4.454zm0 6.563a2.112 2.112 0 0 1-2.109-2.11c0-1.163.946-2.109 2.11-2.109 1.162 0 2.109.946 2.109 2.11 0 1.163-.947 2.11-2.11 2.11zm10.938-6.563a4.458 4.458 0 0 0-4.453 4.454 4.458 4.458 0 0 0 4.453 4.452 4.458 4.458 0 0 0 4.453-4.452 4.458 4.458 0 0 0-4.453-4.454zm0 6.563a2.112 2.112 0 0 1-2.11-2.11c0-1.163.947-2.109 2.11-2.109 1.163 0 2.11.946 2.11 2.11 0 1.163-.947 2.11-2.11 2.11zm-32.813-18.75a4.459 4.459 0 0 0-4.453 4.453 4.459 4.459 0 0 0 4.453 4.454 4.459 4.459 0 0 0 4.454-4.454 4.459 4.459 0 0 0-4.454-4.454zm0 6.562a2.112 2.112 0 0 1-2.109-2.11c0-1.163.946-2.108 2.11-2.108 1.163 0 2.109.945 2.109 2.109 0 1.163-.946 2.11-2.11 2.11zm21.875-6.563a4.459 4.459 0 0 0-4.453 4.454 4.459 4.459 0 0 0 4.453 4.454 4.459 4.459 0 0 0 4.454-4.454 4.459 4.459 0 0 0-4.454-4.454zm0 6.563a2.112 2.112 0 0 1-2.109-2.11c0-1.163.946-2.108 2.11-2.108 1.162 0 2.109.945 2.109 2.109 0 1.163-.947 2.11-2.11 2.11zm10.938-6.563a4.459 4.459 0 0 0-4.453 4.454 4.459 4.459 0 0 0 4.453 4.454 4.459 4.459 0 0 0 4.453-4.454 4.459 4.459 0 0 0-4.453-4.454zm0 6.563a2.112 2.112 0 0 1-2.11-2.11c0-1.163.947-2.108 2.11-2.108 1.163 0 2.11.945 2.11 2.109 0 1.163-.947 2.11-2.11 2.11zm-21.875-6.563a4.459 4.459 0 0 0-4.453 4.454 4.459 4.459 0 0 0 4.453 4.454 4.459 4.459 0 0 0 4.453-4.454 4.459 4.459 0 0 0-4.453-4.454zm0 6.563a2.112 2.112 0 0 1-2.11-2.11c0-1.163.947-2.108 2.11-2.108 1.163 0 2.11.945 2.11 2.109 0 1.163-.947 2.11-2.11 2.11zM16.778 43.205a1.171 1.171 0 0 0-1.658 0l-3.816 3.816L10 45.717a1.171 1.171 0 1 0-1.658 1.658l2.133 2.133a1.174 1.174 0 0 0 1.658 0l4.645-4.647a1.17 1.17 0 0 0 0-1.656z"/></svg>