<svg xmlns="http://www.w3.org/2000/svg" width="49" height="76" viewBox="2 2.14 47.858 74.859" fill="#ff6b00"><path fill="#FF6B00" paint-order="stroke fill markers" fill-rule="evenodd" d="M29.954 66.316h-16.22c-2.4 0-4.353-1.932-4.353-4.306 0-.738.194-1.468.563-2.113a1.087 1.087 0 0 0-.11-1.237 1.116 1.116 0 0 0-1.206-.343C4.664 59.623 2 63.278 2 67.412 2 72.7 6.348 77 11.692 77h1.963c.612 0 1.108-.49 1.108-1.096 0-.606-.496-1.096-1.108-1.096h-1.963c-4.122 0-7.475-3.317-7.475-7.395a7.355 7.355 0 0 1 2.966-5.899c-.013.164-.02.33-.02.497 0 3.583 2.948 6.5 6.571 6.5h16.22c3.339 0 6.054 2.686 6.054 5.988v.309H18.171c-.612 0-1.109.49-1.109 1.096 0 .606.497 1.096 1.109 1.096h18.946c.612 0 1.109-.49 1.109-1.096v-1.405c0-4.511-3.71-8.182-8.272-8.182zm5.147-35.822a1.109 1.109 0 0 0-1.297-.872 1.097 1.097 0 0 0-.88 1.283 7.065 7.065 0 0 1-.31 3.78c-1.362 3.701-5.515 5.616-9.256 4.269a7.144 7.144 0 0 1-4.074-3.693 7.027 7.027 0 0 1-.242-5.463 7.124 7.124 0 0 1 3.734-4.03 7.245 7.245 0 0 1 5.522-.24 7.138 7.138 0 0 1 2.845 1.873 1.116 1.116 0 0 0 1.566.068c.451-.41.481-1.104.067-1.55a9.492 9.492 0 0 0-3.72-2.451 9.471 9.471 0 0 0-7.216.311 9.312 9.312 0 0 0-4.88 5.269c-1.78 4.838.75 10.206 5.64 11.967a9.477 9.477 0 0 0 3.219.564c3.856 0 7.485-2.357 8.878-6.145a9.23 9.23 0 0 0 .404-4.94zm-4.256.657l-1.49-.536.543-1.474a1.094 1.094 0 0 0-.662-1.405l-3.09-1.112a1.116 1.116 0 0 0-1.42.655l-.543 1.473-1.489-.536a1.112 1.112 0 0 0-1.42.655l-1.125 3.057c-.1.273-.087.575.037.838s.35.467.625.567l1.49.536-.542 1.473c-.101.273-.088.575.037.839.124.263.349.467.625.567l3.09 1.11a1.11 1.11 0 0 0 1.42-.654l.542-1.473 1.49.536c.275.1.58.086.847-.036.266-.123.473-.346.573-.62l1.125-3.055a1.092 1.092 0 0 0-.663-1.405zm-2.166 2.68l-1.49-.535a1.11 1.11 0 0 0-1.42.655l-.542 1.473-1.006-.362.542-1.473a1.092 1.092 0 0 0-.662-1.405l-1.49-.537.366-.996 1.49.537c.276.099.58.085.847-.036.267-.124.473-.346.573-.62l.542-1.473 1.007.363-.542 1.473c-.21.57.087 1.198.662 1.405l1.49.537-.367.995zm20.45-21.457L25.596 3.902h-.002l-.001-.001-4.705-1.694a1.112 1.112 0 0 0-1.421.655L17.28 8.807l-.002.005-.01.033c-.008.026-.016.05-.022.075l-.003.008-1.658 6.888c-.142.589.226 1.18.821 1.32a1.108 1.108 0 0 0 1.336-.813l1.37-5.69 20.315 7.315 5.586 2.012-14.932 29.492c-.867 1.712-2.892 2.509-4.711 1.855l-1.733-.624-8.113-2.921h-.001l-1.733-.625c-1.819-.655-2.852-2.553-2.404-4.416l5.307-22.043a1.097 1.097 0 0 0-.821-1.321 1.108 1.108 0 0 0-1.336.813L9.231 42.212c-.71 2.947.925 5.95 3.802 6.986l.692.25-2.466 6.7c-.1.273-.087.575.037.839.125.263.35.468.626.567l8.112 2.92a1.11 1.11 0 0 0 1.42-.654l2.467-6.702.692.25c.678.244 1.374.36 2.061.36 2.225 0 4.343-1.224 5.39-3.294l15.49-30.593a1.035 1.035 0 0 0 .034-.077l.014-.034.002-.005 2.187-5.944c.209-.57-.088-1.2-.663-1.407zM19.75 58.04l-6.03-2.171 2.087-5.671 6.03 2.17-2.087 5.672zM45.9 17.943l-13.078-4.708-13.079-4.709 1.43-3.884 2.623.945-.715 1.942c-.21.569.087 1.198.663 1.405a1.11 1.11 0 0 0 1.42-.655l.715-1.941 2.623.944-.714 1.941c-.21.57.087 1.198.662 1.406a1.113 1.113 0 0 0 1.42-.655l.715-1.941 2.624.944-.715 1.942c-.21.569.087 1.197.663 1.405a1.11 1.11 0 0 0 1.42-.655l.715-1.942 2.623.943-.714 1.942c-.21.57.087 1.2.662 1.407a1.109 1.109 0 0 0 1.42-.655L40 11.42l2.624.945-.715 1.942c-.209.569.088 1.198.663 1.404a1.11 1.11 0 0 0 1.421-.655l.714-1.941 2.624.944-1.43 3.883z"/></svg>