<svg xmlns="http://www.w3.org/2000/svg" width="20" height="24" viewBox="1.008 1.998 18.984 23.003" fill="#00aef0"><path fill="#E87845" paint-order="stroke fill markers" fill-rule="evenodd" d="M10.42 14.395h.147c1.354-.028 2.45-.517 3.258-1.455 1.78-2.07 1.484-5.613 1.452-5.95-.116-2.538-1.28-3.749-2.242-4.318-.716-.425-1.553-.651-2.486-.674H10.498h-.028c-.513 0-1.52.087-2.486.654-.971.567-2.154 1.782-2.27 4.338-.032.337-.328 3.88 1.452 5.95.804.938 1.9 1.427 3.253 1.455zM6.947 7.11c0-.015.005-.029.005-.04.152-3.411 2.505-3.779 3.512-3.779H10.521c1.248.027 3.37.55 3.513 3.78 0 .013 0 .03.004.04.005.031.328 3.272-1.141 4.974-.583.676-1.36 1.015-2.38 1.023h-.047c-1.017-.008-1.798-.347-2.375-1.023C6.629 10.39 6.944 7.136 6.948 7.11zm13.043 13.162v-.016c0-.039-.005-.077-.005-.12-.028-.944-.087-3.147-2.093-3.853-.014-.005-.033-.008-.047-.014-2.084-.55-3.817-1.785-3.836-1.8a.611.611 0 0 0-.869.157c-.198.29-.13.69.153.893.078.058 1.918 1.378 4.22 1.987 1.077.4 1.197 1.584 1.229 2.67 0 .041 0 .08.005.12.004.427-.023 1.09-.097 1.47-.75.44-3.684 1.951-8.149 1.951-4.446 0-7.399-1.517-8.152-1.957-.074-.38-.107-1.044-.097-1.471 0-.036.004-.074.004-.12.033-1.084.153-2.27 1.23-2.666 2.301-.61 4.14-1.935 4.22-1.988a.65.65 0 0 0 .152-.89.607.607 0 0 0-.87-.16c-.018.014-1.742 1.25-3.835 1.8-.019.004-.033.01-.046.013-2.006.711-2.066 2.914-2.094 3.854 0 .044 0 .083-.005.12v.016c-.004.245-.009 1.516.236 2.155a.61.61 0 0 0 .24.3c.14.095 3.462 2.278 9.022 2.278 5.56 0 8.883-2.187 9.022-2.277a.636.636 0 0 0 .24-.301c.231-.635.227-1.905.222-2.15z"/></svg>