
  <svg xmlns="http://www.w3.org/2000/svg" viewBox="3.5570 2.557 38.438 38.431" fill="#a3acb5"><path fill="#A3ACB5" paint-order="stroke fill markers" fill-rule="evenodd" d="M21.287 27.59h.004a11.263 11.263 0 0 0 2.774-1.364c5.292-3.541 6.711-10.701 3.17-15.993-3.542-5.291-10.703-6.71-15.995-3.168-5.293 3.541-6.712 10.7-3.17 15.993a11.55 11.55 0 0 0 3.993 3.672l.002-.001c.903.504 1.87.882 2.876 1.121h.005c.886.219 1.795.33 2.708.329a11.36 11.36 0 0 0 3.633-.59zm-6.04-.982a9.94 9.94 0 0 1-2.557-1 10.272 10.272 0 0 1-5.285-8.959C7.4 10.99 11.987 6.4 17.647 6.394c5.66-.004 10.252 4.583 10.255 10.24a10.248 10.248 0 0 1-4.552 8.528c-.76.515-1.589.922-2.461 1.21h-.004a10.254 10.254 0 0 1-5.63.236h-.008zm15.98-13.704C29.16 5.406 21.404 1 13.904 3.066 6.405 5.133 2 12.89 4.067 20.387a14.082 14.082 0 0 0 5.991 8.125c-1.956 4.53.131 9.788 4.662 11.746a8.947 8.947 0 0 0 3.574.73 8.91 8.91 0 0 0 7.75-4.456 12.08 12.08 0 0 0 3.78.614c6.717.005 12.166-5.436 12.171-12.153a12.16 12.16 0 0 0-10.769-12.089zM4.841 16.65c.002-7.075 5.74-12.807 12.815-12.805A12.811 12.811 0 0 1 30.465 16.65a12.81 12.81 0 0 1-5.46 10.483 12.12 12.12 0 0 1-2.117 1.21 12.592 12.592 0 0 1-3.529 1.001l-.024.004c-.557.076-1.119.115-1.681.113-7.076 0-12.812-5.736-12.812-12.81zm13.452 23.059a7.662 7.662 0 0 1-7.117-10.561 13.52 13.52 0 0 0 6.477 1.595c.474-.002.95-.03 1.422-.08a12.224 12.224 0 0 0 4.025 4.454c.248.165.501.318.757.462l.202.112c.225.12.453.236.683.342.028.013.056.03.084.042a7.64 7.64 0 0 1-6.533 3.634zm11.53-3.844c-1.32.005-2.63-.236-3.862-.709a10.522 10.522 0 0 1-3.051-1.781c-.05-.042-.101-.08-.15-.122a11.43 11.43 0 0 1-1.628-1.729c-.021-.027-.04-.057-.06-.084a11.076 11.076 0 0 1-.591-.89l-.051-.083.045-.01c.064-.012.122-.029.184-.042.237-.051.474-.11.709-.172.096-.027.192-.056.287-.084.21-.06.42-.13.627-.202.09-.032.18-.06.269-.095a13.549 13.549 0 0 0 3.195-1.683h.003a14.066 14.066 0 0 0 5.785-13.941c5.934.96 9.967 6.547 9.007 12.48a10.885 10.885 0 0 1-10.718 9.147zm-11.53 1.282a5.131 5.131 0 0 1-5.124-5.125h-1.282a6.412 6.412 0 0 0 6.406 6.406 6.33 6.33 0 0 0 2.85-.669l-.572-1.147a5.06 5.06 0 0 1-2.278.535zm10.89-5.125h1.28v2.563h-1.28v-2.563zm-3.61 1.597l-1.11-.642 1.28-2.219 1.11.642-1.28 2.219zm8.5.002l-1.28-2.22 1.109-.64 1.28 2.22-1.109.64zm3.75-3.283l-2.218-1.28.64-1.11 2.219 1.281-.64 1.11zm-.954-6.002h2.563v1.282H36.87v-1.282zm.954-4.715l.64 1.107-2.22 1.282-.64-1.108 2.22-1.281zm-3.923-.424l-1.11-.64 1.281-2.22 1.11.64-1.28 2.22zm-13.045 3.86a.64.64 0 0 0-.64-.641h-1.922v-12.17a.64.64 0 0 0-1.093-.453l-2.883 2.881a.642.642 0 0 0 .906.907l1.789-1.789v10.624H15.09a.64.64 0 0 0 0 1.279h5.125a.64.64 0 0 0 .64-.638z"/>

  </svg>