<svg xmlns="http://www.w3.org/2000/svg" width="22" height="25" viewBox="2.165 2.057 20.775 23.834" fill="#e87845"><path fill="#E87845" paint-order="stroke fill markers" fill-rule="evenodd" d="M19.955 17.074c-.424-.56-.976-.903-1.597-.98-.615-.073-1.238.115-1.806.562l-1.775 1.377c-.121-.088-.243-.17-.36-.248-.17-.113-.33-.217-.463-.328-1.366-1.116-2.562-2.504-3.658-4.241-.529-.86-.868-1.579-1.09-2.288.457-.323.885-.665 1.301-.995.158-.12.316-.25.473-.372 1.18-.919 1.347-2.276.425-3.447l-1.198-1.529c-.136-.172-.277-.35-.407-.529a23.088 23.088 0 0 0-.827-1.044c-.427-.54-.976-.865-1.586-.939-.61-.074-1.233.11-1.792.525l-.011.009L3.67 4.11A3.662 3.662 0 0 0 2.3 6.294c-.3 1.441-.037 2.848.184 3.779.542 2.278 1.505 4.441 3.045 6.826 1.87 2.876 4.254 5.256 7.088 7.077 1.084.683 2.541 1.516 4.244 1.834.105.015.214.035.314.046 1.156.143 2.178-.15 3.04-.881.007-.008.017-.013.024-.024.298-.28.634-.529.986-.793.24-.178.488-.365.73-.564.56-.454.893-1.017.969-1.633.076-.619-.116-1.244-.56-1.805l-2.41-3.082zm1.144 5.47c-.004 0-.005.003 0 0-.22.182-.444.35-.685.534-.363.268-.734.55-1.089.876-.572.48-1.199.658-1.98.565-.074-.011-.155-.02-.229-.034-1.475-.279-2.785-1.023-3.76-1.645-2.664-1.71-4.912-3.956-6.676-6.664-1.454-2.258-2.362-4.29-2.867-6.417-.312-1.302-.363-2.285-.176-3.19a2.305 2.305 0 0 1 .873-1.398l1.916-1.489c.274-.2.55-.291.805-.262.315.04.547.26.688.44l.013.019c.27.317.524.648.79 1.001.136.179.277.357.416.543l1.199 1.524c.465.593.405 1.084-.19 1.543-.164.131-.322.259-.484.38-.473.375-.923.727-1.406 1.063-.011.007-.022.01-.028.019-.483.376-.455.807-.4 1.101.003.019.007.033.01.046.25.902.65 1.77 1.292 2.824l.005.004c1.172 1.87 2.466 3.368 3.947 4.575.19.154.387.288.575.41.169.111.329.217.463.324.018.012.037.032.055.04.16.109.315.166.48.188.416.053.708-.177.804-.252l1.921-1.496c.192-.148.487-.318.802-.284.31.041.542.266.676.456a.07.07 0 0 0 .009.007l2.419 3.087c.453.572.388 1.096-.188 1.561z"/></svg>