<svg xmlns="http://www.w3.org/2000/svg" width="62" height="62" viewBox="2.06 1.026 60.966 60.972" fill="#fa590e"><path fill="#FA590E" paint-order="stroke fill markers" fill-rule="evenodd" d="M61.836 1.026H21.824c-.657 0-1.19.534-1.19 1.192v23.927a1.191 1.191 0 0 0 2.381 0v-3.629c2.075-.909 9.4-3.51 18.357.33 3.97 1.703 7.642 2.23 10.669 2.23a25.45 25.45 0 0 0 4.2-.345c1.848-.31 3.347-.77 4.404-1.165v32.476a3.577 3.577 0 0 1-3.573 3.574H26.587a3.577 3.577 0 0 1-3.572-3.574V37.843a1.191 1.191 0 0 0-2.382 0v18.199a5.96 5.96 0 0 0 5.954 5.954h30.485a5.96 5.96 0 0 0 5.954-5.954V2.218c0-.658-.533-1.192-1.19-1.192zm-1.191 19.97c-.86.376-2.58 1.024-4.898 1.402-4.51.734-9.03.15-13.437-1.74-6.062-2.6-11.432-2.46-14.868-1.884a23.877 23.877 0 0 0-4.427 1.174V3.409h37.63v17.588zM22.666 31.749a1.2 1.2 0 0 0-.842-.349 1.2 1.2 0 0 0-.842.349 1.199 1.199 0 0 0-.349.841c0 .314.128.622.35.842a1.2 1.2 0 0 0 .841.35c.313 0 .62-.128.842-.35a1.2 1.2 0 0 0 .349-.842c0-.312-.127-.62-.349-.841zm33.452 1.786a1.19 1.19 0 0 0-1.191 1.19v9.924a1.19 1.19 0 1 0 2.382 0v-9.924a1.19 1.19 0 0 0-1.191-1.19zm.841 14.797a1.199 1.199 0 0 0-.842-.35 1.2 1.2 0 0 0-.841.35 1.204 1.204 0 0 0-.35.843c0 .313.128.62.35.841.22.222.528.348.841.348.315 0 .62-.126.842-.348a1.195 1.195 0 0 0 0-1.684zM14.66 30.098c-2.878-2.878-7.562-2.878-10.441 0-2.879 2.88-2.879 7.563 0 10.442a7.335 7.335 0 0 0 5.22 2.162 7.335 7.335 0 0 0 5.221-2.162 7.336 7.336 0 0 0 2.163-5.22 7.334 7.334 0 0 0-2.163-5.222zM9.44 40.32a4.97 4.97 0 0 1-3.537-1.465 5.01 5.01 0 0 1-.74-6.13l6.87 6.871a4.968 4.968 0 0 1-2.593.724zm4.278-2.408l-6.87-6.87a4.995 4.995 0 0 1 2.592-.724c1.28 0 2.561.488 3.536 1.463a4.968 4.968 0 0 1 1.465 3.537 4.97 4.97 0 0 1-.723 2.594zm-1.484 9.318c-4.071 0-7.383 3.312-7.383 7.384 0 4.07 3.312 7.383 7.383 7.383s7.383-3.312 7.383-7.383c0-4.072-3.312-7.384-7.383-7.384zm-1.19 12.241a5.01 5.01 0 0 1-3.811-4.857 5.01 5.01 0 0 1 3.81-4.857v9.714zm2.381 0v-9.714a5.01 5.01 0 0 1 3.81 4.857 5.01 5.01 0 0 1-3.81 4.857z"/></svg>