<svg xmlns="http://www.w3.org/2000/svg" width="60" height="64" viewBox="1 1.999 58.598 62.638" fill="#ff6b00"><path fill="#FF6B00" paint-order="stroke fill markers" fill-rule="evenodd" d="M14.412 17.414c-.674 0-1.22.547-1.22 1.223 0 .675.546 1.224 1.22 1.224.672 0 1.219-.549 1.219-1.224 0-.676-.547-1.223-1.22-1.223zM25.384 40.29h-3.657v-3.67c0-.675-.546-1.224-1.22-1.224-.673 0-1.219.549-1.219 1.224v3.67h-3.657c-.673 0-1.22.548-1.22 1.223 0 .676.547 1.223 1.22 1.223h3.657v3.67a1.22 1.22 0 0 0 1.22 1.223c.673 0 1.219-.547 1.219-1.223v-3.67h3.657c.674 0 1.22-.547 1.22-1.223 0-.675-.546-1.223-1.22-1.223zm32.907 1.101c-2.695-4.684-8.654-6.287-13.323-3.582l-4.953 2.869V30.055a6.177 6.177 0 0 0-1.219-3.67L32.7 18.228v-3.472a3.673 3.673 0 0 0 2.438-3.46V5.67A3.669 3.669 0 0 0 31.481 2H9.535a3.668 3.668 0 0 0-3.658 3.67v5.627a3.675 3.675 0 0 0 2.438 3.46v3.472L2.22 26.385A6.176 6.176 0 0 0 1 30.055v23.691c0 3.373 2.735 6.118 6.096 6.118H26.69c2.734 4.597 8.629 6.135 13.25 3.458L54.72 54.76C59.35 52.078 61 46.1 58.291 41.39zM8.315 5.671c0-.676.547-1.225 1.22-1.225H31.48c.673 0 1.22.55 1.22 1.224v5.627c0 .675-.547 1.223-1.22 1.223H9.535a1.222 1.222 0 0 1-1.22-1.223V5.67zM4.17 27.851l6.34-8.48c.158-.213.244-.47.244-.735v-3.67H30.26v2.447H19.288c-.673 0-1.219.547-1.219 1.223 0 .675.546 1.224 1.22 1.224H30.87l5.974 7.99c.39.524.633 1.15.706 1.796H3.464a3.705 3.705 0 0 1 .706-1.795zm2.926 29.565a3.668 3.668 0 0 1-3.657-3.67V52.51h22.15a9.837 9.837 0 0 0 .06 4.906H7.095zm19.45-7.34H3.44V32.094h34.138v9.996l-7.392 4.282a9.705 9.705 0 0 0-3.639 3.705zM38.72 61.204a7.298 7.298 0 0 1-9.992-2.685c-2.031-3.547-.8-8.014 2.677-10.028l6.618-3.834 7.315 12.713-6.618 3.834zm14.782-8.564l-6.052 3.507-7.315-12.713 6.052-3.506a7.297 7.297 0 0 1 9.992 2.686c2.031 3.532.796 8.015-2.677 10.026z"/></svg>