<svg xmlns="http://www.w3.org/2000/svg" width="71" height="67" viewBox="1.168 2.142 69.705 65.858" fill="#ff6b00"><path fill="#FF6B00" paint-order="stroke fill markers" fill-rule="evenodd" d="M30.494 3.612A1.292 1.292 0 0 1 31.6 2.155c.712-.1 1.369.392 1.47 1.096l2.057 14.416a1.29 1.29 0 0 1-1.288 1.468 1.296 1.296 0 0 1-1.285-1.108L30.494 3.612zm34.265 4.93L63.741 9.55a1.279 1.279 0 0 0 0 1.82c.508.503 1.33.503 1.839 0l1.017-1.007 1.018 1.008c.254.251.586.377.919.377.333 0 .665-.126.92-.377a1.28 1.28 0 0 0 0-1.821l-1.018-1.008 1.018-1.009a1.28 1.28 0 0 0 0-1.82 1.307 1.307 0 0 0-1.839 0L66.597 6.72 65.58 5.712a1.307 1.307 0 0 0-1.838 0 1.28 1.28 0 0 0 0 1.821l1.018 1.009zM27.042 25.267a1.3 1.3 0 0 0 1.033.506c.275 0 .553-.087.79-.266a1.28 1.28 0 0 0 .24-1.805L17.632 8.865a1.307 1.307 0 0 0-1.823-.239 1.279 1.279 0 0 0-.241 1.805l11.475 14.836zM5.707 13.241l.43.328c.236.18.515.267.791.267.39 0 .776-.173 1.032-.504a1.279 1.279 0 0 0-.239-1.805l-.43-.328a1.309 1.309 0 0 0-1.823.237 1.279 1.279 0 0 0 .24 1.805zM4.61 29.201a1.296 1.296 0 0 0-1.46 1.107 1.29 1.29 0 0 0 1.119 1.446l13.293 1.744a1.296 1.296 0 0 0 1.46-1.108 1.29 1.29 0 0 0-1.119-1.445L4.61 29.2zm5.335-12.733l12.635 9.62c.237.18.515.266.792.266.39 0 .775-.173 1.031-.503a1.28 1.28 0 0 0-.238-1.806l-12.636-9.62a1.308 1.308 0 0 0-1.822.238 1.28 1.28 0 0 0 .238 1.805zM37.9 19.256a1.296 1.296 0 0 0 1.463-1.103l1.99-14.54a1.289 1.289 0 0 0-1.113-1.45 1.296 1.296 0 0 0-1.462 1.102l-1.991 14.542a1.29 1.29 0 0 0 1.113 1.45zm29.632 18.198l-17.828-2.338a1.298 1.298 0 0 0-1.459 1.108 1.29 1.29 0 0 0 1.118 1.445l17.828 2.339a1.297 1.297 0 0 0 1.46-1.108 1.29 1.29 0 0 0-1.119-1.446zm1.124-7.098a1.297 1.297 0 0 0-1.457-1.108l-13.376 1.734a1.29 1.29 0 0 0-1.12 1.444 1.296 1.296 0 0 0 1.457 1.109L67.536 31.8a1.29 1.29 0 0 0 1.12-1.444zm-8.354-15.895l-12.585 9.552a1.28 1.28 0 0 0-.241 1.805c.256.332.642.505 1.033.505.275 0 .553-.086.79-.265l12.584-9.552a1.28 1.28 0 0 0 .241-1.805 1.309 1.309 0 0 0-1.822-.24zm-3.477-6.846c.236.18.515.267.791.267.39 0 .776-.173 1.032-.503l.115-.147a1.28 1.28 0 0 0-.238-1.806 1.307 1.307 0 0 0-1.823.236l-.115.148a1.279 1.279 0 0 0 .238 1.805zm2.314-2.985a1.303 1.303 0 0 0 1.823-.235l.12-.155a1.28 1.28 0 0 0-.237-1.807 1.31 1.31 0 0 0-1.822.235l-.122.157a1.28 1.28 0 0 0 .238 1.805zM43.016 25.432a1.304 1.304 0 0 0 1.823-.236l11.43-14.735a1.28 1.28 0 0 0-.238-1.806 1.309 1.309 0 0 0-1.823.236l-11.43 14.736a1.279 1.279 0 0 0 .238 1.805zM3.725 10.107a1.28 1.28 0 0 0-.24-1.806L3.26 8.13a1.307 1.307 0 0 0-1.823.237 1.279 1.279 0 0 0 .24 1.804l.225.173c.236.179.515.266.791.266.39 0 .776-.173 1.032-.503zm40.467 34.52a1.284 1.284 0 0 1-.515 1.363 1.31 1.31 0 0 1-1.468.017l-6.09-4.022-6.562 4.044a1.313 1.313 0 0 1-1.467-.063 1.283 1.283 0 0 1-.471-1.38l1.98-6.977-5.911-4.934c-.41-.343-.566-.9-.392-1.403a1.298 1.298 0 0 1 1.177-.87l7.313-.29 2.91-7.094a1.305 1.305 0 0 1 2.423.038l2.54 6.8 7.709.549a1.3 1.3 0 0 1 1.149.906 1.282 1.282 0 0 1-.437 1.39l-5.743 4.492 1.855 7.433zm-4.123-8.94l3.771-2.951-5.203-.372a1.298 1.298 0 0 1-1.126-.837l-1.668-4.465-1.964 4.788a1.301 1.301 0 0 1-1.152.802l-4.803.191 3.99 3.33c.39.326.552.847.414 1.333l-1.3 4.585 4.43-2.731a1.313 1.313 0 0 1 1.407.022l4 2.642-1.253-5.018a1.282 1.282 0 0 1 .457-1.32zm21.505 30a1.309 1.309 0 0 0-1.822-.24 1.28 1.28 0 0 0-.24 1.806l.187.243c.256.33.642.504 1.033.504.275 0 .554-.087.79-.266a1.28 1.28 0 0 0 .24-1.805l-.188-.242zM4.63 25.517l1.018-1.008 1.017 1.008c.254.252.587.377.92.377.332 0 .665-.125.919-.377a1.28 1.28 0 0 0 0-1.822l-1.018-1.007 1.018-1.009a1.28 1.28 0 0 0 0-1.821 1.31 1.31 0 0 0-1.839 0l-1.017 1.009-1.018-1.01a1.31 1.31 0 0 0-1.839 0 1.28 1.28 0 0 0 0 1.822l1.018 1.009-1.017 1.007a1.28 1.28 0 0 0 0 1.822 1.31 1.31 0 0 0 1.838 0zm54.445 36.934l-.188-.244a1.308 1.308 0 0 0-1.822-.237 1.28 1.28 0 0 0-.241 1.805l.188.243a1.308 1.308 0 0 0 1.822.239 1.28 1.28 0 0 0 .24-1.806zm10.4-14.897l1.018-1.008a1.278 1.278 0 0 0 0-1.82 1.308 1.308 0 0 0-1.838 0l-1.018 1.008-1.018-1.009a1.309 1.309 0 0 0-1.838 0 1.28 1.28 0 0 0 0 1.821l1.018 1.008-1.018 1.008a1.278 1.278 0 0 0 0 1.821c.508.503 1.33.503 1.838 0l1.018-1.008 1.018 1.008a1.3 1.3 0 0 0 .919.378 1.3 1.3 0 0 0 .92-.378 1.279 1.279 0 0 0 0-1.82l-1.019-1.009zm-7.619 5.187l-12.112-9.222a1.307 1.307 0 0 0-1.823.236 1.279 1.279 0 0 0 .238 1.805l12.113 9.222c.236.18.515.268.791.268a1.3 1.3 0 0 0 1.032-.504 1.28 1.28 0 0 0-.239-1.805zM49.77 50.42a1.308 1.308 0 0 0-1.822-.24 1.281 1.281 0 0 0-.242 1.807l6.463 8.355a1.3 1.3 0 0 0 1.033.505c.275 0 .553-.087.79-.266a1.28 1.28 0 0 0 .24-1.804L49.77 50.42zm-25.843-6.73a1.308 1.308 0 0 0-1.822-.24L9.917 52.704a1.28 1.28 0 0 0-.241 1.805c.255.33.642.504 1.032.504.276 0 .554-.087.79-.266l12.188-9.25a1.28 1.28 0 0 0 .241-1.805zM10.715 60.748a1.308 1.308 0 0 0-1.839 0l-1.018 1.008-1.017-1.008a1.309 1.309 0 0 0-1.839 0 1.28 1.28 0 0 0 0 1.82l1.018 1.008-1.018 1.01a1.28 1.28 0 0 0 0 1.82 1.31 1.31 0 0 0 1.838 0l1.018-1.008 1.018 1.009c.254.25.586.377.92.377.332 0 .664-.127.918-.377a1.28 1.28 0 0 0 0-1.822l-1.017-1.009 1.017-1.007a1.279 1.279 0 0 0 0-1.821zM23.43 36.22a1.3 1.3 0 0 0-1.457-1.11l-17.71 2.297a1.289 1.289 0 0 0-1.12 1.443 1.296 1.296 0 0 0 1.457 1.11l17.71-2.297a1.29 1.29 0 0 0 1.12-1.443zm15.932 15.1A1.299 1.299 0 0 0 37.9 50.22a1.289 1.289 0 0 0-1.113 1.448l1.99 14.541a1.296 1.296 0 0 0 1.463 1.103 1.288 1.288 0 0 0 1.114-1.448L39.363 51.32zm-5.341-.969c-.71-.1-1.369.39-1.47 1.095l-2.058 14.416a1.29 1.29 0 0 0 1.289 1.468c.637 0 1.193-.465 1.285-1.107l2.058-14.416a1.29 1.29 0 0 0-1.104-1.456zm-10.194-.188a1.309 1.309 0 0 0-1.822.236l-6.475 8.348a1.28 1.28 0 0 0 .238 1.805 1.302 1.302 0 0 0 1.823-.236l6.475-8.346a1.28 1.28 0 0 0-.239-1.807z"/></svg>