<svg xmlns="http://www.w3.org/2000/svg" width="62" height="62" viewBox="2 1.998 61 61" fill="#f64d01"><path fill="#F64D01" paint-order="stroke fill markers" fill-rule="evenodd" d="M43.699 24.396c-1.142 0-2.278.102-3.394.3.196-1.11.296-2.246.296-3.397A19.174 19.174 0 0 0 34.95 7.652 19.171 19.171 0 0 0 21.3 1.998 19.174 19.174 0 0 0 7.653 7.652 19.175 19.175 0 0 0 2 21.299a19.175 19.175 0 0 0 5.653 13.649A19.174 19.174 0 0 0 21.301 40.6a19.173 19.173 0 0 0 13.648-5.652 19.209 19.209 0 0 0 4.717-7.684 17.03 17.03 0 0 1 4.033-.485c9.329 0 16.918 7.59 16.918 16.918 0 8.929-6.952 16.263-15.727 16.876V35.954a1.192 1.192 0 1 0-2.383 0v24.62c-8.774-.615-15.726-7.948-15.726-16.877a1.191 1.191 0 0 0-2.383 0c0 10.643 8.658 19.3 19.3 19.3C54.343 62.998 63 54.34 63 43.698c0-10.642-8.659-19.3-19.301-19.3zm-10.435 8.867a16.81 16.81 0 0 1-11.963 4.954c-4.52 0-8.768-1.76-11.963-4.954a16.807 16.807 0 0 1-4.955-11.964 16.79 16.79 0 0 1 4.142-11.09l20.281 20.28a1.187 1.187 0 0 0 1.685 0 1.191 1.191 0 0 0 0-1.685L10.21 8.524A16.794 16.794 0 0 1 21.3 4.38c4.519 0 8.767 1.76 11.963 4.956A16.805 16.805 0 0 1 38.219 21.3c0 4.52-1.76 8.768-4.955 11.964zm11.277-2.917a1.199 1.199 0 0 0-.842-.35 1.194 1.194 0 0 0-.842 2.034c.221.222.528.35.842.35a1.2 1.2 0 0 0 .842-.35c.222-.221.35-.528.35-.842 0-.313-.128-.621-.35-.842zM17.971 8.12a1.192 1.192 0 0 0-1.502-.763c-.011.005-.031.01-.042.015a1.191 1.191 0 0 0 .796 2.246c.617-.21.952-.877.749-1.498zm13.761 2.747a14.789 14.789 0 0 0-11.058-4.307 1.192 1.192 0 0 0 .101 2.38 12.418 12.418 0 0 1 9.272 3.612 1.19 1.19 0 0 0 1.685 0 1.191 1.191 0 0 0 0-1.685z"/></svg>